Coordinates
version=1
nRows=11
nColumns=36
inDegrees=yes

Units are S.I. units (second, meters, Newtons, ...)
If the header above contains a line with 'inDegrees', this indicates whether rotational values are in degrees (yes) or radians (no).

endheader
time	pelvis_tilt	pelvis_list	pelvis_rotation	pelvis_tx	pelvis_ty	pelvis_tz	hip_flexion_r	hip_adduction_r	hip_rotation_r	knee_angle_r	knee_angle_r_beta	ankle_angle_r	subtalar_angle_r	mtp_angle_r	hip_flexion_l	hip_adduction_l	hip_rotation_l	knee_angle_l	knee_angle_l_beta	ankle_angle_l	subtalar_angle_l	mtp_angle_l	lumbar_extension	lumbar_bending	lumbar_rotation	arm_flex_r	arm_add_r	arm_rot_r	elbow_flex_r	pro_sup_r	arm_flex_l	arm_add_l	arm_rot_l	elbow_flex_l	pro_sup_l
      1.02083330	    -12.66821470	      1.86407405	    -16.05364114	     -0.51794032	      1.14581687	     -0.52750469	     22.39554993	      6.46159094	     29.36079016	     45.84451775	      0.80013778	     26.22406962	     17.92183167	     -7.49999987	     33.38413446	    -24.45947310	    -27.00625570	     44.59967574	      0.77841119	     -6.75713480	    -14.63645610	     -7.49999987	    -23.05084909	      4.37409506	      1.16370264	     17.22383736	    -22.37553883	     35.67381104	     38.98031955	     65.74332441	      6.28804867	    -23.89860984	      6.87142609	     43.44687763	     65.30025286
      1.02500000	    -13.14681839	      1.67128792	    -15.91015556	     -0.51502980	      1.14058318	     -0.53085422	     22.36173552	      6.24786603	     28.81728803	     45.11501705	      0.78740559	     26.92667328	     16.22063475	     -7.49999987	     33.53911071	    -24.58464456	    -27.02691364	     44.34052910	      0.77388822	     -7.33578825	    -13.89918818	     -7.49999987	    -22.55721192	      4.64813502	      1.70443102	     16.13024604	    -22.33949151	     33.32327242	     40.49911717	     73.81651057	      7.08199004	    -24.07172788	      9.15522881	     41.41061429	     63.24169555
      1.02916670	    -13.51996416	      1.87051775	    -15.50492122	     -0.51241752	      1.13867810	     -0.53031765	     21.82931998	      6.10478203	     28.90085362	     43.69955809	      0.76270117	     23.43864528	     18.88716610	     -7.49999987	     34.23671138	    -24.48665854	    -26.84336901	     45.08579959	      0.78689565	     -8.18063206	    -14.32237743	     -7.49999987	    -22.16921677	      4.32977574	      1.10611907	     15.75025046	    -21.85798886	     33.29171022	     41.67956804	     73.35826471	      6.51978601	    -24.70343785	      9.12245029	     41.25682556	     63.06061562
      1.03333330	    -13.76781708	      2.23741616	    -15.29139884	     -0.51395104	      1.13719520	     -0.53188648	     21.74511261	      5.68435692	     28.81907597	     42.86432171	      0.74812355	     19.89556555	     21.71184608	     -7.49999987	     34.87399021	    -24.12819785	    -26.48682672	     45.65596337	      0.79684688	     -8.47703407	    -14.83582728	     -7.49999987	    -22.37904267	      3.75563794	      0.58893241	     16.00515279	    -21.34006154	     33.41006117	     42.77996932	     73.52768156	      6.56118144	    -25.37069737	      9.15298287	     40.54387664	     62.98066191
      1.03750000	    -14.05766657	      2.35059715	    -15.11550451	     -0.51381269	      1.13638468	     -0.53177316	     22.17545552	      5.64265703	     28.63582398	     42.76032403	      0.74630844	     17.04829539	     24.03627439	     -7.49999987	     35.83579624	    -24.02290649	    -25.87680675	     46.32371661	      0.80850138	     -8.74322953	    -15.36453586	     -7.49999987	    -23.02773323	      3.38069385	      0.28086606	     16.14258719	    -21.13310439	     33.42140944	     44.95170427	     73.25219349	      6.75324878	    -26.05107274	      9.01575317	     40.29271059	     62.49375997
      1.04166670	    -14.20206109	      2.46985162	    -14.83259463	     -0.51051884	      1.13829905	     -0.53355366	     22.12693052	      5.36435455	     28.70453069	     42.29204269	      0.73813539	     15.32781202	     25.44327491	     -7.49999987	     36.44515775	    -23.83211194	    -25.37171721	     46.95568263	      0.81953126	     -8.04660779	    -15.48312810	     -7.49999987	    -23.71884950	      3.01955769	     -0.07786195	     16.49171218	    -20.62663902	     33.36495847	     45.83011262	     73.44855137	      6.98157991	    -26.66098576	      9.09013183	     39.87919518	     62.40472466
      1.04583330	    -14.47130939	      2.25874511	    -14.64245502	     -0.51106415	      1.13537215	     -0.53545404	     22.48303221	      5.52403770	     28.50488677	     42.33957896	      0.73896506	     13.39352905	     26.71825213	     -7.49999987	     37.24958123	    -24.07679114	    -24.65734385	     47.74687063	      0.83334010	     -8.66181924	    -15.79915247	     -7.49999987	    -24.43738275	      3.10259262	      0.55172201	     15.68437091	    -21.06340691	     30.68663779	     49.08344923	     78.10944250	      8.31681521	    -27.28877285	     11.92506496	     38.81880369	     59.62525979
      1.05000000	    -14.90870059	      2.00099024	    -14.75703167	     -0.51147315	      1.13303300	     -0.53581484	     23.11904848	      5.74330946	     28.27151780	     42.68756071	      0.74503848	     13.79799645	     26.99030321	     -7.49999987	     38.06882583	    -24.48583777	    -24.00166893	     48.39658631	      0.84467978	     -7.79660240	    -15.69766072	     -7.49999987	    -24.86581066	      3.19574749	      0.40135315	     16.10327159	    -21.16288554	     30.72416720	     50.80600774	     77.41314206	      8.10577636	    -27.95366963	     11.53503370	     38.86229129	     59.33617115
      1.05416670	    -15.38044235	      1.46053720	    -14.77588264	     -0.51160956	      1.13518249	     -0.53672330	     23.72979578	      6.29461641	     27.92512089	     42.77529626	      0.74656976	     12.43831049	     27.36614119	     -7.49999987	     38.37172052	    -24.90226794	    -23.35790068	     48.09407992	      0.83940005	     -8.93422999	    -15.68215626	     -7.49999987	    -25.14188688	      3.65220205	      0.29737177	     16.50802235	    -21.72202852	     30.79418034	     52.86364253	     77.25626192	      8.12648900	    -28.34474495	     11.26678576	     38.14065351	     58.84587336
      1.05833330	    -16.02486980	      1.02147138	    -15.20301178	     -0.51541338	      1.12632080	     -0.53564110	     25.03433970	      7.22943411	     27.76787092	     43.86748905	      0.76563212	     13.21111813	     27.94483950	     -7.49999987	     39.51479870	    -25.94276207	    -22.85913630	     48.79269899	      0.85159325	     -8.78045826	    -14.99547959	     -7.49999987	    -25.46861937	      3.81505884	      0.55924437	     17.02636354	    -22.16036390	     30.96999567	     55.65411853	     76.13086521	      7.79973901	    -29.26449630	     10.68725020	     38.69393557	     58.43512075
      1.06250000	    -16.93038777	      0.65059779	    -15.46073691	     -0.51692872	      1.12315711	     -0.53330707	     26.44306899	      8.19331783	     27.64423057	     44.94608058	      0.78445709	     14.70507414	     27.93186070	     -7.49999987	     40.83252535	    -26.96272270	    -22.35443786	     49.30981162	      0.86061857	     -9.00721831	    -14.59956356	     -7.49999987	    -25.35458861	      4.02737982	      0.79203332	     17.37514037	    -22.47417910	     31.46025145	     58.78729705	     76.81585955	      7.84111629	    -30.28678828	     10.67742325	     38.48031942	     57.83890586
